<svg width="218" height="55" viewBox="0 0 218 55" fill="none" xmlns="http://www.w3.org/2000/svg">
<g clip-path="url(#clip0_346_3243)">
<g clip-path="url(#clip1_346_3243)">
<path d="M1.12012 54.5H19.5979C28.3597 54.5 35.4626 47.3971 35.4626 38.6353H16.9848C8.223 38.6353 1.12012 45.7381 1.12012 54.5Z" fill="#F22B37"/>
<path d="M1.94629 15.8647V39.1952C10.7081 39.1952 17.811 32.0923 17.811 23.3305V0C9.04917 0 1.94629 7.10288 1.94629 15.8647Z" fill="#8C30F5"/>
<path d="M53.3805 0H34.9028C26.141 0 19.0381 7.10288 19.0381 15.8647H37.5158C46.2777 15.8647 53.3805 8.76185 53.3805 0Z" fill="#FECE22"/>
<path d="M53.3804 37.7021V14.3716C44.6185 14.3716 37.5156 21.4745 37.5156 30.2363V53.5668C46.2775 53.5668 53.3804 46.4639 53.3804 37.7021Z" fill="#2EC5CE"/>
</g>
<path d="M78.6358 34.88V13.625H72.4072V40.875H88.3679V34.88H78.6358Z" fill="black"/>
<path d="M104.858 21.4107V23.2403C103.573 21.761 101.665 20.8657 99.0572 20.8657C93.9575 20.8657 89.7532 25.3425 89.7532 31.1428C89.7532 36.9432 93.9575 41.42 99.0572 41.42C101.665 41.42 103.573 40.5246 104.858 39.0453V40.875H110.697V21.4107H104.858ZM100.225 35.8921C97.539 35.8921 95.5925 34.0625 95.5925 31.1428C95.5925 28.2232 97.539 26.3935 100.225 26.3935C102.911 26.3935 104.858 28.2232 104.858 31.1428C104.858 34.0625 102.911 35.8921 100.225 35.8921Z" fill="black"/>
<path d="M126.387 20.8657C123.818 20.8657 121.871 21.8 120.82 23.2403V21.4107H114.981V40.875H120.82V30.2475C120.82 27.4835 122.299 26.2378 124.44 26.2378C126.309 26.2378 127.827 27.3667 127.827 29.7803V40.875H133.666V28.9239C133.666 23.6685 130.319 20.8657 126.387 20.8657Z" fill="black"/>
<path d="M151.808 13.625V23.2403C150.523 21.761 148.615 20.8657 146.007 20.8657C140.908 20.8657 136.703 25.3425 136.703 31.1428C136.703 36.9432 140.908 41.42 146.007 41.42C148.615 41.42 150.523 40.5246 151.808 39.0453V40.875H157.647V13.625H151.808ZM147.175 35.8921C144.489 35.8921 142.543 34.0625 142.543 31.1428C142.543 28.2232 144.489 26.3935 147.175 26.3935C149.861 26.3935 151.808 28.2232 151.808 31.1428C151.808 34.0625 149.861 35.8921 147.175 35.8921Z" fill="black"/>
<path d="M164.85 19.6978C166.758 19.6978 168.354 18.1017 168.354 16.1942C168.354 14.2867 166.758 12.6907 164.85 12.6907C162.943 12.6907 161.347 14.2867 161.347 16.1942C161.347 18.1017 162.943 19.6978 164.85 19.6978ZM161.931 40.875H167.77V21.4107H161.931V40.875Z" fill="black"/>
<path d="M182.748 18.6857V13.08C176.286 12.6907 173.289 15.9607 173.289 21.4107H170.681V27.0164H173.289V40.875H179.128V27.0164H182.748V21.4107H179.128C179.128 19.1528 180.568 18.491 182.748 18.6857Z" fill="black"/>
<path d="M197.915 21.4107L194.256 33.3228L189.935 21.4107H183.512L191.259 39.9796C190.402 42.3542 189.117 43.2107 186.392 43.2107V48.6607C191.842 48.9332 195.307 46.4807 197.487 40.291L204.144 21.4107H197.915Z" fill="black"/>
<path d="M209.77 8.17493H204.508V9.5238H206.429V15.3281H207.839V9.5238H209.77V8.17493Z" fill="black"/>
<path d="M217.558 8.17493H216.106L214.063 11.5573L212.009 8.17493H210.558V15.3281H211.968V10.699L213.981 14.0098H214.144L216.158 10.6887V15.3281H217.558V8.17493Z" fill="black"/>
</g>
<defs>
<clipPath id="clip0_346_3243">
<rect width="218" height="54.5" fill="white"/>
</clipPath>
<clipPath id="clip1_346_3243">
<rect width="54.5" height="54.5" fill="white"/>
</clipPath>
</defs>
</svg>
